<svg width="1446" height="436" fill="none" xmlns="http://www.w3.org/2000/svg">
  <path
    d="m1178.97 277.516-69.02-119.634c-9.63-16.536-4.03-37.817 12.65-47.307 16.54-9.634 37.68-3.882 47.31 12.653l69.02 119.778c9.63 16.536 3.88 37.673-12.65 47.307-5.47 3.02-11.36 4.601-17.26 4.601-11.93 0-23.58-6.183-30.05-17.398Z"
    fill="#735035"
  />
  <path
    d="M1209.02 294.914c-1.34 0-2.68-.096-4.02-.287-10.5-1.151-20.28-7.19-26.03-17.111l-12.8-22.144-56.22-97.49c-3.02-5.177-4.6-10.928-4.74-16.392-.29-12.366 6.03-24.301 17.39-30.915 16.54-9.49 37.68-.719 47.31 15.817 0 0 32.64 81.385 39.97 106.98a282.224 282.224 0 0 1 10.36 59.673c-3.6 1.294-7.48 1.869-11.22 1.869Z"
    fill="#5A3B22"
  />
  <path
    d="M989.742 294.914c-5.896 0-11.935-1.581-17.399-4.601-16.536-9.634-22.144-30.771-12.654-47.307l69.161-119.778c9.49-16.535 30.77-22.287 47.31-12.653 16.54 9.49 22.14 30.771 12.65 47.307l-69.16 119.634c-6.33 11.215-17.97 17.398-29.908 17.398Z"
    fill="#735035"
  />
  <path
    d="m1088.81 157.882-69.16 119.634c-6.33 11.215-17.97 17.398-29.909 17.398-3.882 0-7.621-.575-11.216-1.869 1.295-19.987 4.745-39.83 10.209-59.242 7.334-25.738 40.116-107.411 40.116-107.411 9.49-16.536 30.77-25.451 47.31-15.817 5.46 3.163 9.63 7.477 12.65 12.51.39.767.77 1.533 1.15 2.3 4.89 9.922 4.89 22.144-1.15 32.497Z"
    fill="#5A3B22"
  />
  <path
    d="M1175.52 324.535s29.19 39.111 32.64 42.562c2.01 2.013 3.02 3.163 6.04 3.451 5.89.288 14.23-.575 17.83 2.157 6.04 4.745-3.6 16.104-7.19 20.13-7.62 8.34-23.3 24.589-32.5 31.491-10.35 7.764-12.22 5.464-21.57-3.308-1.29-1.15-46.15-45.725-46.15-45.725l50.9-50.758Z"
    fill="#745136"
  />
  <path
    d="M1187.02 407.79c-3.45 5.464-7.48 11.215-12.22 16.967-1.25-1.054-2.59-2.301-4.03-3.739-1.29-1.15-46.15-45.725-46.15-45.725l50.9-50.758s15.96 21.425 25.59 33.935c-.14 16.967-4.89 34.078-14.09 49.32Z"
    fill="#5A3B22"
  />
  <path
    d="M1062.36 375.293s-44.87 44.575-46.16 45.725c-9.35 8.772-11.22 11.072-21.57 3.308-9.202-6.902-24.876-23.151-32.497-31.491-3.594-4.026-13.228-15.385-7.189-20.13 3.595-2.732 11.935-1.869 17.83-2.157 3.02-.288 4.026-1.438 6.039-3.451 3.451-3.451 32.637-42.562 32.637-42.562l50.91 50.758Z"
    fill="#745136"
  />
  <path
    d="m1011.45 324.535 50.91 50.758s-44.87 44.575-46.16 45.725c-1.44 1.295-22.864-55.071-23.008-72.182 9.638-12.51 18.258-24.301 18.258-24.301Z"
    fill="#5A3B22"
  />
  <path
    d="M1099.31 423.175c-14.52 0-27.32-1.581-38.39-4.313-40.41-9.778-70.029-44.288-74.199-85.556a883.252 883.252 0 0 1-.287-4.17c-2.732-32.352.719-64.849 9.634-96.052 9.062-32.209 22.432-78.509 34.362-118.483 7.91-26.457 15.25-50.04 20.42-65.28 5.03-15.099 9.35-44.576 48.6-44.576 38.25 0 43.43 29.333 48.6 44.575 5.04 15.242 12.37 38.824 20.28 65.281 11.79 39.83 25.16 85.987 34.36 118.052 9.21 32.065 12.51 65.568 9.35 98.784a17.67 17.67 0 0 0-.14 2.013c-4.17 41.412-33.79 75.778-74.2 85.412-11.07 2.732-23.72 4.313-38.39 4.313Z"
    fill="#735035"
  />
  <path
    d="M1100.6 4.026c2.74-1.294 5.47-1.725 8.92-2.013-1.15 1.007-3.02 4.026-3.02 4.026h-17.26A35.926 35.926 0 0 1 1103.91 0c-1.44 1.294-2.3 2.013-3.31 4.026Z"
    fill="#735035"
  />
  <path
    d="M1118.29 80.523c0 10.065-4.6 19.987-18.98 19.987s-18.98-9.922-18.98-19.987c0-9.922 0-17.974 18.98-17.974s18.98 8.052 18.98 17.974Z"
    fill="#F1BC89"
  />
  <path
    d="M1108.94 73.62c-1 3.883-5.46 7.046-9.63 7.19-4.17-.144-8.48-3.307-9.63-7.19-.87-3.019 1.72-4.888 3.16-5.32 3.16-.718 9.92-.862 12.94 0 1.58.576 4.03 2.301 3.16 5.32Z"
    fill="#15191C"
  />
  <path d="M1092.98 71.464c2.88-1.582 9.2-1.582 12.51 0" stroke="#2A2E30" stroke-width="1.6" stroke-linecap="round" />
  <path
    d="M1127.06 56.078c0 2.732-2.3 5.033-5.03 5.033-2.88 0-5.03-2.3-5.03-5.033 0-2.876 2.15-5.032 5.03-5.032 2.73 0 5.03 2.156 5.03 5.032Z"
    fill="#15191C"
  />
  <path
    d="M1124.62 54.353c0 1.006-.72 1.725-1.73 1.725-.86 0-1.58-.719-1.58-1.725 0-.863.72-1.726 1.58-1.726 1.01 0 1.73.863 1.73 1.726Z"
    fill="#F8F8F8"
  />
  <path
    d="M1081.48 56.078c0 2.732-2.3 5.033-5.18 5.033-2.73 0-5.03-2.3-5.03-5.033 0-2.876 2.3-5.032 5.03-5.032 2.88 0 5.18 2.156 5.18 5.032Z"
    fill="#15191C"
  />
  <path
    d="M1078.89 54.353c0 1.006-.72 1.725-1.58 1.725-1.01 0-1.73-.719-1.73-1.725 0-.863.72-1.726 1.73-1.726.86 0 1.58.863 1.58 1.726Z"
    fill="#F8F8F8"
  />
  <path
    d="M1078.17 17.399c0 6.902-5.75 12.653-12.65 12.653-7.05 0-12.65-5.751-12.65-12.653 0-7.046 5.6-12.654 12.65-12.654 6.9 0 12.65 5.608 12.65 12.654Z"
    fill="#735035"
  />
  <path
    d="M1073.72 17.399c0 4.457-3.74 8.196-8.2 8.196-4.6 0-8.34-3.739-8.34-8.196 0-4.602 3.74-8.196 8.34-8.196 4.46 0 8.2 3.594 8.2 8.196Z"
    fill="#5A3B22"
  />
  <path
    d="M1145.61 17.399c0 6.902-5.75 12.653-12.65 12.653-7.05 0-12.66-5.751-12.66-12.653 0-7.046 5.61-12.654 12.66-12.654 6.9 0 12.65 5.608 12.65 12.654Z"
    fill="#735035"
  />
  <path
    d="M1141.15 17.399c0 4.457-3.74 8.196-8.19 8.196-4.61 0-8.2-3.739-8.2-8.196 0-4.602 3.59-8.196 8.2-8.196 4.45 0 8.19 3.594 8.19 8.196Z"
    fill="#5A3B22"
  />
  <path d="M1212.19 293.908s7.47 19.555 6.18 36.522c-3.31-4.601-6.33-6.039-9.06-6.183l2.88-30.339Z" fill="#735035" />
  <path d="M1211.9 318.352s5.32 20.275 2.01 36.954c-2.73-4.745-5.61-6.47-8.2-7.046l6.19-29.908Z" fill="#735035" />
  <ellipse cx="1242.08" cy="427.747" rx="28.559" ry="2.5" fill="#EAEAEA" />
  <path
    d="M1443 400.247s-146.91 24.192-167.39 19.363c-8.47-1.997-15.99 0-15.99 0"
    stroke="#0F0F0F"
    stroke-width="5"
    stroke-linecap="round"
  />
  <path
    d="M1252.86 412.105c-2.09 8.416-7.8 12.208-14.36 13.611-5.86 1.255-12.32.555-17.14-.63l12.27-41.733c4.57 1.65 9.99 4.59 14.03 8.88 4.54 4.824 7.32 11.325 5.2 19.872Z"
    fill="url(#a)"
    stroke="#0F0F0F"
    stroke-width="4"
  />
  <path
    fill-rule="evenodd"
    clip-rule="evenodd"
    d="m1248.26 421.743 2.94 1.17a4.974 4.974 0 0 0 6.62-3.214l.57-1.911a5.028 5.028 0 0 0-3.37-6.23l-1.43-.428c-.08.381-.17.766-.26 1.154-1.01 4.047-2.79 7.135-5.07 9.459Z"
    fill="#fff"
  />
  <path
    d="m1251.2 422.913.74-1.857-.74 1.857Zm-2.94-1.17-1.43-1.4-2.1 2.146 2.79 1.112.74-1.858Zm9.56-2.044-1.92-.567 1.92.567Zm.57-1.911-1.92-.567 1.92.567Zm-3.37-6.23-.58 1.916.58-1.916Zm-1.43-.428.57-1.916-2.09-.628-.44 2.142 1.96.402Zm-.26 1.154-1.95-.482 1.95.482Zm-1.39 8.772-2.94-1.171-1.48 3.716 2.94 1.17 1.48-3.715Zm3.96-1.924a2.973 2.973 0 0 1-3.96 1.924l-1.48 3.715c3.82 1.523 8.11-.561 9.28-4.505l-3.84-1.134Zm.57-1.911-.57 1.911 3.84 1.134.57-1.91-3.84-1.135Zm-2.03-3.747a3.024 3.024 0 0 1 2.03 3.747l3.84 1.135c1.09-3.705-1.02-7.605-4.72-8.714l-1.15 3.832Zm-1.43-.429 1.43.429 1.15-3.832-1.43-.428-1.15 3.831Zm-1.38-2.317c-.07.354-.16.712-.25 1.074l3.89.964c.1-.415.19-.827.28-1.235l-3.92-.803Zm-.25 1.074c-.92 3.728-2.54 6.491-4.55 8.541l2.86 2.8c2.55-2.598 4.49-6.011 5.58-10.377l-3.89-.964Z"
    fill="#0F0F0F"
  />
  <path
    d="M1231.43 405.367c-1.82 6.161-4.33 11.392-6.84 14.87-1.26 1.747-2.46 2.959-3.49 3.648-1.05.699-1.67.705-1.98.611-.32-.094-.83-.441-1.33-1.601-.49-1.147-.84-2.821-.94-4.979-.22-4.296.52-10.054 2.35-16.215 1.82-6.16 4.32-11.392 6.84-14.87 1.26-1.747 2.46-2.958 3.49-3.648 1.05-.698 1.67-.705 1.98-.611.31.094.83.441 1.33 1.602.49 1.146.83 2.821.94 4.978.22 4.296-.53 10.055-2.35 16.215Z"
    fill="#fff"
    stroke="#0F0F0F"
    stroke-width="4"
  />
  <ellipse
    cx="1.242"
    cy="4.017"
    rx="1.242"
    ry="4.017"
    transform="matrix(.94888 .31563 -.31183 .95014 1227.31 395.052)"
    fill="#0F0F0F"
  />
  <ellipse
    cx="1.242"
    cy="4.017"
    rx="1.242"
    ry="4.017"
    transform="matrix(.94888 .31563 -.31183 .95014 1227.31 395.052)"
    fill="#0F0F0F"
  />
  <ellipse
    cx="1.242"
    cy="4.017"
    rx="1.242"
    ry="4.017"
    transform="matrix(.94888 .31563 -.31183 .95014 1227.31 395.052)"
    fill="#0F0F0F"
  />
  <ellipse
    cx="1.242"
    cy="4.017"
    rx="1.242"
    ry="4.017"
    transform="matrix(.94888 .31563 -.31183 .95014 1227.31 395.052)"
    fill="#0F0F0F"
  />
  <ellipse
    cx="1.242"
    cy="4.017"
    rx="1.242"
    ry="4.017"
    transform="matrix(.94888 .31563 -.31183 .95014 1223.18 405.286)"
    fill="#0F0F0F"
  />
  <ellipse
    cx="1.242"
    cy="4.017"
    rx="1.242"
    ry="4.017"
    transform="matrix(.94888 .31563 -.31183 .95014 1223.18 405.286)"
    fill="#0F0F0F"
  />
  <ellipse
    cx="1.242"
    cy="4.017"
    rx="1.242"
    ry="4.017"
    transform="matrix(.94888 .31563 -.31183 .95014 1223.18 405.286)"
    fill="#0F0F0F"
  />
  <ellipse
    cx="1.242"
    cy="4.017"
    rx="1.242"
    ry="4.017"
    transform="matrix(.94888 .31563 -.31183 .95014 1223.18 405.286)"
    fill="#0F0F0F"
  />
  <ellipse
    cx="6.047"
    cy="1.094"
    rx="6.047"
    ry="1.094"
    transform="rotate(-19.07 1872.52 -3454.827) skewX(.074)"
    fill="#626262"
  />
  <path
    d="M2.699 339.266a2.5 2.5 0 1 0 .602 4.963l-.602-4.963Zm668.694-56.519-.598-2.428.598 2.428Zm-45.596 37.501v-2.5 2.5Zm285.094 0v2.5-2.5Zm72.109 2.5h2.5v-5H983v5Zm226.97-39.293 2.46-.472-.95-4.91-2.45.472.94 4.91Zm-220.831 7.628-2.417-.639-1.278 4.834 2.417.639 1.278-4.834Zm218.311-25.623 2.46-.448-.9-4.919-2.46.447.9 4.92Zm-216.221-3.283 2.177-1.228-2.457-4.355-2.178 1.229 2.458 4.354Zm214.221-9.217 2.46-.448-.9-4.919-2.46.447.9 4.92Zm-214.579 16.568-2.472-.371-.742 4.944 2.472.371.742-4.944ZM3 341.748c.301 2.481.304 2.481.31 2.48l.03-.003.115-.014.457-.056 1.807-.218 7.03-.848c6.146-.74 15.139-1.82 26.522-3.178a36390.96 36390.96 0 0 1 93.327-11.016c76.476-8.929 176.597-20.382 271.189-30.474 94.607-10.094 183.634-18.823 237.946-22.312 13.576-.872 24.956-1.415 33.699-1.571 8.85-.158 14.727.09 17.484.697.32.07.564.138.741.199.185.063.254.103.251.102a.812.812 0 0 1-.103-.078 1.455 1.455 0 0 1-.244-.273 1.904 1.904 0 0 1-.326-1.25c.073-.823.606-1.078.251-.802-.23.179-.696.464-1.507.841-3.272 1.521-10.105 3.62-21.184 6.345l1.195 4.855c11.029-2.712 18.32-4.91 22.097-6.666.952-.443 1.806-.913 2.468-1.428.538-.418 1.536-1.305 1.66-2.701.154-1.725-1.06-2.729-1.747-3.138-.728-.434-1.62-.701-2.478-.89-3.428-.754-9.899-.968-18.647-.812-8.854.158-20.321.706-33.931 1.58-54.43 3.497-143.555 12.237-238.155 22.33-94.615 10.095-194.755 21.549-271.238 30.48a36777.13 36777.13 0 0 0-93.341 11.017 27653.085 27653.085 0 0 0-33.559 4.027l-1.807.219-.459.055-.115.014-.03.004c-.006 0-.009.001.292 2.483Zm667.795-61.429c-26.42 6.498-51.74 15.955-63.71 23.961-2.975 1.989-5.404 4.067-6.733 6.196-.682 1.092-1.176 2.359-1.148 3.736.029 1.44.625 2.706 1.597 3.725 1.779 1.865 4.883 2.98 8.759 3.69 4.011.735 9.379 1.121 16.237 1.121v-5c-6.712 0-11.744-.381-15.337-1.039-3.729-.683-5.433-1.586-6.041-2.224-.223-.232-.215-.339-.216-.375-.002-.099.032-.412.39-.986.751-1.202 2.448-2.8 5.271-4.688 11.222-7.504 35.841-16.797 62.126-23.262l-1.195-4.855Zm-44.998 42.429H910.89l.001-2.5-.001-2.5H625.797v5Zm285.094 0H983v-5h-72.109v5Zm298.139-44.203c-19.32 3.715-68.77 7.894-114.45 11.022-22.8 1.561-44.6 2.857-61.13 3.7-8.27.421-15.21.729-20.29.9-2.55.086-4.62.137-6.15.151-.77.007-1.39.005-1.86-.006a15.45 15.45 0 0 1-.73-.033l-.07-.006-.7 4.949c.66.095 1.9.11 3.41.096 1.59-.015 3.7-.068 6.26-.154 5.13-.172 12.11-.482 20.39-.904 16.56-.844 38.39-2.142 61.21-3.705 45.57-3.12 95.37-7.315 115.05-11.1l-.94-4.91Zm-204.68 15.728c-3.4-.486-7.193-1.28-10.167-1.961a193.47 193.47 0 0 1-5.023-1.223l-.017-.005a.01.01 0 0 1-.003-.001h-.001l-.639 2.417-.639 2.417h.001l.001.001.006.001.02.005.076.02.29.075a194.559 194.559 0 0 0 4.812 1.167c3.026.693 6.983 1.522 10.583 2.036l.7-4.949Zm202.2-33.733c.02-.004-.17.021-.76.049-.53.026-1.24.049-2.15.071-1.8.043-4.29.078-7.38.106-6.19.054-14.74.078-24.86.078-20.25 0-46.79-.094-73.29-.219-52.99-.25-105.889-.625-108.11-.625v5c2.209 0 55.06.375 108.09.625 26.5.125 53.04.219 73.31.219 10.13 0 18.69-.024 24.9-.078 3.1-.028 5.63-.063 7.47-.108.91-.022 1.67-.046 2.26-.074.51-.025 1.05-.058 1.42-.124l-.9-4.92ZM990 260c-.109 0-.206-.002-.293-.005a4.623 4.623 0 0 1-.366-.03c-.036-.005-.056-.01-.062-.011a.033.033 0 0 1 .003.001l.027.008.054.02a1.825 1.825 0 0 1 .188.093 1.943 1.943 0 0 1 .615.586 2.05 2.05 0 0 1 .26.532 2.153 2.153 0 0 1 .098.824 1.972 1.972 0 0 1-.123.544 1.634 1.634 0 0 1-.128.258l-.029.043-.019.027-.015.018.015-.016a2.078 2.078 0 0 1 .1-.092l.076-.063a4.692 4.692 0 0 1 .378-.276c.065-.045.128-.086.186-.123l.152-.094.095-.057.019-.011.002-.001-.001.001h-.002v.001L990 260l-1.23-2.177-.001.001-.002.001-.006.004a.106.106 0 0 0-.017.01l-.053.03a12.44 12.44 0 0 0-.716.452c-.383.259-1.014.714-1.507 1.271-.233.263-.617.746-.812 1.409-.239.808-.177 1.885.604 2.766.62.7 1.425.953 1.918 1.064.554.125 1.174.169 1.822.169v-5Zm214.55-11.96c-16.38 2.978-67.38 8.719-115.67 13.535-24.12 2.405-47.51 4.576-65.49 6.051-8.99.737-16.62 1.3-22.3 1.631-2.844.166-5.183.273-6.956.315-1.852.045-2.889.012-3.263-.044l-.742 4.944c.876.132 2.35.142 4.125.099 1.855-.045 4.258-.155 7.126-.322 5.74-.335 13.41-.901 22.42-1.64 18.02-1.478 41.44-3.652 65.57-6.059 48.21-4.808 99.46-10.568 116.08-13.59l-.9-4.92Z"
    fill="#0F0F0F"
  />
  <defs>
    <radialGradient
      id="a"
      cx="0"
      cy="0"
      r="1"
      gradientUnits="userSpaceOnUse"
      gradientTransform="matrix(-27.9463 39.82708 -29.47661 -20.68348 1246.45 397.248)"
    >
      <stop stop-color="#0F0F0F" />
      <stop offset="1" stop-color="#2C2C2C" />
    </radialGradient>
  </defs>
</svg>
