<?xml version="1.0" standalone="no"?>
<!DOCTYPE svg PUBLIC "-//W3C//DTD SVG 20010904//EN" "http://www.w3.org/TR/2001/REC-SVG-20010904/DTD/svg10.dtd">
<svg
  version="1.0"
  xmlns="http://www.w3.org/2000/svg"
  width="922.000000pt"
  height="922.000000pt"
  viewBox="0 0 922.000000 922.000000"
  preserveAspectRatio="xMidYMid meet"
>
  <metadata>Created by potrace 1.14, written by Peter Selinger 2001-2017</metadata>
  <g transform="translate(0.000000,922.000000) scale(0.100000,-0.100000)" fill="#000000" stroke="none">
    <path
      d="M4805 9195 c-272 -63 -520 -163 -746 -300 -78 -47 -97 -55 -190 -70
-261 -44 -520 -122 -762 -230 l-106 -47 -68 73 c-83 88 -151 139 -253 190
-128 64 -211 82 -380 83 -176 0 -229 -12 -388 -90 -93 -46 -128 -70 -197 -136
-135 -127 -216 -265 -256 -436 -18 -73 -20 -110 -17 -227 4 -125 8 -150 37
-235 47 -140 103 -231 201 -331 47 -47 98 -95 115 -106 l29 -21 -51 -108
c-107 -226 -204 -494 -339 -934 -42 -135 -154 -483 -249 -775 -189 -575 -405
-1255 -620 -1953 l-136 -442 41 -123 c348 -1026 1051 -1876 1995 -2412 796
-452 1762 -644 2675 -529 834 104 1610 441 2264 983 118 97 363 338 481 471
303 345 561 757 739 1179 60 141 166 442 166 469 0 40 -593 1935 -760 2427
-28 83 -104 319 -170 525 -203 641 -297 896 -427 1153 l-34 68 91 86 c137 129
216 258 261 428 30 112 30 307 0 420 -107 405 -474 675 -886 652 -122 -7 -204
-27 -313 -78 -110 -51 -194 -112 -276 -200 l-66 -72 -110 52 c-137 64 -355
139 -525 179 -140 34 -349 72 -395 72 -16 0 -32 4 -35 10 -6 10 84 139 133
193 l26 27 -32 0 c-112 0 -354 -49 -493 -100 l-79 -29 15 28 c27 53 86 126
148 183 34 32 58 57 52 57 -5 0 -55 -11 -110 -24z m-1645 -3590 c82 -42 77
-160 -7 -200 -33 -16 -41 -16 -77 -4 -52 19 -79 56 -78 109 1 84 87 134 162
95z m3153 -25 c75 -84 -11 -215 -118 -180 -93 31 -101 172 -11 211 40 17 99 3
129 -31z m-1372 -650 c517 -52 799 -216 902 -528 54 -163 62 -237 62 -597 0
-275 -3 -346 -18 -422 -96 -500 -352 -819 -767 -957 -357 -118 -825 -96 -1136
53 -177 85 -309 194 -415 344 -188 266 -259 575 -246 1072 9 334 40 489 129
639 131 222 409 356 818 394 135 13 549 14 671 2z"
    />
    <path
      d="M4450 4594 c-19 -2 -78 -9 -130 -15 -157 -18 -214 -41 -286 -113 -51
-51 -66 -73 -79 -120 -28 -97 -1 -202 84 -323 114 -162 285 -272 484 -311 258
-51 587 128 717 390 74 150 67 247 -27 349 -100 108 -212 138 -533 144 -107 2
-211 1 -230 -1z"
    />
  </g>
</svg>
